<?xml version="1.0" standalone="no"?>
<!DOCTYPE svg PUBLIC "-//W3C//DTD SVG 20010904//EN"
 "http://www.w3.org/TR/2001/REC-SVG-20010904/DTD/svg10.dtd">
<svg version="1.0" xmlns="http://www.w3.org/2000/svg"
 width="300.000000pt" height="300.000000pt" viewBox="0 0 300.000000 300.000000"
 preserveAspectRatio="xMidYMid meet">
<metadata>
Created by potrace 1.10, written by Peter Selinger 2001-2011
</metadata>
<g transform="translate(0.000000,300.000000) scale(0.100000,-0.100000)"
fill="#000000" stroke="none">
<path d="M990 1994 c0 -24 -3 -25 -42 -22 -42 3 -43 2 -46 -30 -3 -32 -3 -32
42 -32 44 0 46 -1 46 -30 0 -16 -4 -30 -10 -30 -6 0 -10 -35 -10 -85 l0 -85
45 0 c38 0 45 3 45 20 0 17 7 20 45 20 l45 0 0 -144 c0 -156 8 -196 39 -196
20 0 27 24 33 121 l3 36 82 -31 c64 -23 83 -35 88 -53 5 -22 9 -23 110 -23
102 0 105 1 105 23 0 19 13 27 85 53 l85 32 0 -54 c0 -67 14 -104 39 -104 26
0 31 34 31 201 l0 139 45 0 c38 0 45 -3 45 -20 0 -17 7 -20 45 -20 l45 0 0 85
c0 50 -4 85 -10 85 -5 0 -10 14 -10 30 0 29 2 30 45 30 44 0 45 1 45 33 0 32
0 32 -45 29 -43 -4 -45 -3 -45 22 0 21 -5 26 -25 26 -20 0 -25 -5 -25 -25 0
-23 -4 -25 -45 -25 -43 0 -45 -1 -45 -30 0 -29 2 -30 45 -30 43 0 45 -1 45
-30 0 -16 -4 -30 -10 -30 -5 0 -10 -9 -10 -20 0 -18 -7 -20 -89 -20 -97 0
-127 13 -156 71 -25 48 -60 59 -190 59 -136 0 -172 -12 -201 -66 -27 -51 -59
-64 -159 -64 -78 0 -85 2 -85 20 0 11 -4 20 -10 20 -5 0 -10 14 -10 30 0 29 1
30 48 30 47 0 47 0 46 32 -1 32 -1 32 -47 29 -45 -2 -47 -1 -47 23 0 21 -5 26
-25 26 -20 0 -25 -5 -25 -26z m40 -9 c0 -8 -4 -15 -10 -15 -5 0 -10 7 -10 15
0 8 5 15 10 15 6 0 10 -7 10 -15z m957 -7 c-3 -8 -6 -5 -6 6 -1 11 2 17 5 13
3 -3 4 -12 1 -19z m-941 -39 c3 -5 -9 -9 -25 -9 -17 0 -31 4 -31 9 0 5 11 9
25 9 14 0 28 -4 31 -9z m970 0 c3 -5 -11 -9 -31 -9 -20 0 -34 4 -31 9 3 5 17
9 31 9 14 0 28 -4 31 -9z m-386 -25 c0 -3 -17 -28 -37 -55 -37 -46 -40 -48
-89 -49 -49 0 -53 2 -92 49 -23 27 -42 52 -42 55 0 3 59 6 130 6 72 0 130 -3
130 -6z m-600 -34 c0 -16 -4 -30 -10 -30 -5 0 -10 14 -10 30 0 17 5 30 10 30
6 0 10 -13 10 -30z m957 -17 c-3 -10 -5 -2 -5 17 0 19 2 27 5 18 2 -10 2 -26
0 -35z m-583 -33 c39 -50 40 -50 97 -50 57 0 59 1 101 50 24 27 48 50 53 50 6
-1 22 -19 38 -41 35 -50 59 -59 161 -59 63 0 87 4 96 16 8 8 22 20 32 25 17 9
18 5 18 -51 0 -66 -12 -76 -45 -39 -18 19 -27 20 -141 15 -138 -5 -164 -14
-216 -76 -34 -39 -37 -40 -99 -40 -60 0 -65 2 -84 31 -11 17 -38 41 -61 55
-36 21 -57 25 -165 30 -117 5 -126 4 -143 -15 -34 -37 -46 -27 -46 39 0 52 2
59 18 53 9 -4 23 -15 30 -25 11 -15 28 -18 110 -18 l96 0 46 50 c25 27 50 49
55 49 6 0 28 -22 49 -49z m-199 -250 c0 -127 -2 -140 -17 -140 -16 0 -18 13
-18 140 0 127 2 140 18 140 15 0 17 -13 17 -140z m64 95 c18 -25 47 -53 64
-61 29 -15 50 -35 43 -41 -1 -1 -36 11 -77 26 l-74 29 -3 46 c-2 25 1 46 6 46
5 0 23 -20 41 -45z m83 10 c20 -14 42 -34 48 -45 9 -18 8 -20 -15 -20 -37 0
-58 14 -96 61 l-33 42 29 -7 c17 -4 47 -18 67 -31z m379 16 c-20 -37 -81 -81
-112 -81 l-30 0 21 28 c21 27 93 71 118 72 9 0 10 -5 3 -19z m47 -27 l-3 -47
-72 -27 c-53 -20 -73 -25 -73 -15 0 7 13 18 29 23 16 6 47 33 68 61 21 27 42
50 46 50 4 1 7 -20 5 -45z m57 -94 c0 -127 -2 -140 -17 -140 -16 0 -18 13 -18
140 0 127 2 140 18 140 15 0 17 -13 17 -140z m-229 -32 c-14 -104 -7 -98 -106
-98 l-87 0 -7 43 c-4 23 -9 57 -12 75 l-6 32 112 0 113 0 -7 -52z m-238 -17
c5 -15 -2 -14 -69 10 -33 12 -59 27 -59 34 0 15 122 -26 128 -44z m402 46 c0
-10 -108 -57 -133 -57 -37 0 74 61 126 69 4 0 7 -5 7 -12z"/>
<path d="M1437 1894 c-14 -15 4 -19 67 -16 37 2 64 8 60 13 -6 10 -117 13
-127 3z"/>
<path d="M1460 1840 c0 -5 18 -10 40 -10 22 0 40 5 40 10 0 6 -18 10 -40 10
-22 0 -40 -4 -40 -10z"/>
<path d="M1462 1574 c-43 -30 -15 -114 38 -114 24 0 70 42 70 63 0 24 -40 67
-64 67 -12 0 -32 -7 -44 -16z m80 -29 c9 -21 8 -28 -7 -45 -31 -34 -75 -20
-75 25 0 48 62 63 82 20z"/>
<path d="M1476 1541 c-11 -18 6 -42 28 -39 29 4 29 42 -1 46 -11 2 -24 -1 -27
-7z"/>
<path d="M1860 1315 c-10 -12 -11 -21 -4 -33 15 -22 27 -24 49 -8 16 12 18 18
9 33 -15 24 -38 27 -54 8z"/>
<path d="M950 1185 l0 -135 25 0 c24 0 24 2 27 88 l3 87 22 -37 c12 -21 27
-38 33 -38 6 0 21 17 33 38 l22 37 3 -87 c3 -86 3 -88 27 -88 l25 0 0 135 0
135 -24 0 c-18 0 -32 -13 -56 -51 l-33 -51 -29 51 c-23 39 -35 51 -54 51 l-24
0 0 -135z m50 70 c0 -8 -4 -17 -10 -20 -6 -4 -10 5 -10 20 0 15 4 24 10 20 6
-3 10 -12 10 -20z m138 -10 c-2 -10 -7 -12 -17 -5 -13 7 -13 11 -1 25 15 18
24 8 18 -20z"/>
<path d="M1260 1308 c-36 -20 -50 -55 -50 -131 0 -62 3 -71 29 -98 23 -23 38
-29 71 -29 33 0 48 6 71 29 37 38 38 61 1 61 -19 0 -30 -7 -37 -22 -13 -30
-49 -35 -67 -9 -14 19 -16 130 -3 151 4 6 20 10 36 10 23 0 32 -6 39 -26 7
-18 15 -24 26 -20 9 3 20 6 25 6 16 0 9 28 -14 55 -26 31 -89 42 -127 23z"/>
<path d="M1675 1308 c-9 -24 -85 -252 -85 -255 0 -2 13 -3 29 -3 20 0 30 6 34
20 4 17 14 20 55 20 41 0 51 -3 55 -20 4 -14 14 -20 35 -20 l30 0 -43 133
c-43 129 -44 132 -74 135 -19 2 -33 -2 -36 -10z m54 -116 l19 -62 -40 0 c-34
0 -39 3 -33 18 4 9 12 38 18 64 6 26 13 46 14 44 1 -1 11 -30 22 -64z"/>
<path d="M1860 1148 c0 -98 0 -98 25 -98 25 0 25 0 25 99 l0 99 -25 -2 c-25
-1 -25 -2 -25 -98z"/>
<path d="M1957 1244 c-4 -4 -7 -49 -7 -101 l0 -93 30 0 c29 0 29 0 32 68 3 65
4 67 31 70 19 2 27 9 27 23 0 10 0 22 1 27 1 15 -33 13 -52 -4 -15 -14 -20
-15 -17 -4 3 15 -32 26 -45 14z m43 -43 c0 -6 -4 -13 -10 -16 -5 -3 -10 1 -10
9 0 9 5 16 10 16 6 0 10 -4 10 -9z"/>
<path d="M1439 1188 c0 -2 -2 -13 -3 -25 -3 -22 1 -23 66 -23 66 0 68 1 68 25
0 24 -2 25 -65 25 -36 0 -65 -1 -66 -2z"/>
</g>
</svg>
